<mxfile host="app.diagrams.net" modified="2025-06-10T19:54:23Z" agent="ChatGPT" version="24.3.4"><diagram id="03d64b0d-63bb-4977-a94b-d1536f0ed367" name="Prod-Physical-AWS2025-v5"><mxGraphModel dx="1282" dy="841" grid="1" gridSize="10" page="1" pageScale="1" pageWidth="1600" pageHeight="900"><root><mxCell id="0" /><mxCell id="1" parent="0" /><mxCell id="2" parent="1" value="AI Loyalty Maximizer VPC&#10;10.0.0.0/16" style="shape=mxgraph.aws4.group;grIcon=mxgraph.aws4.group_vpc;fillColor=none;strokeColor=#232F3E;fontColor=#232F3E;html=1;verticalAlign=top;align=left;spacingLeft=26;" vertex="1"><mxGeometry x="40" y="40" width="1400" height="820" as="geometry" /></mxCell><mxCell id="3" parent="2" value="Availability Zone A" style="shape=mxgraph.aws4.group;grIcon=mxgraph.aws4.group_availability_zone;fillColor=none;strokeColor=#232F3E;fontColor=#232F3E;html=1;verticalAlign=top;align=left;spacingLeft=26;" vertex="1"><mxGeometry x="60.0" y="120" width="440.0" height="700" as="geometry" /></mxCell><mxCell id="4" parent="2" value="Availability Zone B" style="shape=mxgraph.aws4.group;grIcon=mxgraph.aws4.group_availability_zone;fillColor=none;strokeColor=#232F3E;fontColor=#232F3E;html=1;verticalAlign=top;align=left;spacingLeft=26;" vertex="1"><mxGeometry x="520.0" y="120" width="440.0" height="700" as="geometry" /></mxCell><mxCell id="5" parent="2" value="Availability Zone C" style="shape=mxgraph.aws4.group;grIcon=mxgraph.aws4.group_availability_zone;fillColor=none;strokeColor=#232F3E;fontColor=#232F3E;html=1;verticalAlign=top;align=left;spacingLeft=26;" vertex="1"><mxGeometry x="980.0" y="120" width="440.0" height="700" as="geometry" /></mxCell><mxCell id="6" parent="3" value="Public Subnet&#10;10.0.1.0/24" style="shape=mxgraph.aws4.group;grIcon=mxgraph.aws4.group_public_subnet;fillColor=none;strokeColor=#232F3E;fontColor=#232F3E;html=1;verticalAlign=top;align=left;spacingLeft=26;" vertex="1"><mxGeometry x="80.0" y="160" width="400.0" height="160" as="geometry" /></mxCell><mxCell id="7" parent="3" value="Private-App Subnet" style="shape=mxgraph.aws4.group;grIcon=mxgraph.aws4.group_private_subnet;fillColor=none;strokeColor=#232F3E;fontColor=#232F3E;html=1;verticalAlign=top;align=left;spacingLeft=26;" vertex="1"><mxGeometry x="80.0" y="340" width="400.0" height="240" as="geometry" /></mxCell><mxCell id="8" parent="3" value="Private-Data Subnet" style="shape=mxgraph.aws4.group;grIcon=mxgraph.aws4.group_private_subnet;fillColor=none;strokeColor=#232F3E;fontColor=#232F3E;html=1;verticalAlign=top;align=left;spacingLeft=26;" vertex="1"><mxGeometry x="80.0" y="600" width="400.0" height="240" as="geometry" /></mxCell><mxCell id="9" parent="4" value="Public Subnet&#10;10.0.2.0/24" style="shape=mxgraph.aws4.group;grIcon=mxgraph.aws4.group_public_subnet;fillColor=none;strokeColor=#232F3E;fontColor=#232F3E;html=1;verticalAlign=top;align=left;spacingLeft=26;" vertex="1"><mxGeometry x="540.0" y="160" width="400.0" height="160" as="geometry" /></mxCell><mxCell id="10" parent="4" value="Private-App Subnet" style="shape=mxgraph.aws4.group;grIcon=mxgraph.aws4.group_private_subnet;fillColor=none;strokeColor=#232F3E;fontColor=#232F3E;html=1;verticalAlign=top;align=left;spacingLeft=26;" vertex="1"><mxGeometry x="540.0" y="340" width="400.0" height="240" as="geometry" /></mxCell><mxCell id="11" parent="4" value="Private-Data Subnet" style="shape=mxgraph.aws4.group;grIcon=mxgraph.aws4.group_private_subnet;fillColor=none;strokeColor=#232F3E;fontColor=#232F3E;html=1;verticalAlign=top;align=left;spacingLeft=26;" vertex="1"><mxGeometry x="540.0" y="600" width="400.0" height="240" as="geometry" /></mxCell><mxCell id="12" parent="5" value="Public Subnet&#10;10.0.3.0/24" style="shape=mxgraph.aws4.group;grIcon=mxgraph.aws4.group_public_subnet;fillColor=none;strokeColor=#232F3E;fontColor=#232F3E;html=1;verticalAlign=top;align=left;spacingLeft=26;" vertex="1"><mxGeometry x="1000.0" y="160" width="400.0" height="160" as="geometry" /></mxCell><mxCell id="13" parent="5" value="Private-App Subnet" style="shape=mxgraph.aws4.group;grIcon=mxgraph.aws4.group_private_subnet;fillColor=none;strokeColor=#232F3E;fontColor=#232F3E;html=1;verticalAlign=top;align=left;spacingLeft=26;" vertex="1"><mxGeometry x="1000.0" y="340" width="400.0" height="240" as="geometry" /></mxCell><mxCell id="14" parent="5" value="Private-Data Subnet" style="shape=mxgraph.aws4.group;grIcon=mxgraph.aws4.group_private_subnet;fillColor=none;strokeColor=#232F3E;fontColor=#232F3E;html=1;verticalAlign=top;align=left;spacingLeft=26;" vertex="1"><mxGeometry x="1000.0" y="600" width="400.0" height="240" as="geometry" /></mxCell><mxCell id="15" parent="6" style="shape=mxgraph.aws4.resourceIcon;resIcon=mxgraph.aws4.nat_gateway;fillColor=#FFB300;strokeColor=#FFFFFF;gradientColor=none;verticalLabelPosition=bottom;verticalAlign=top;html=1;" vertex="1"><mxGeometry x="0" y="0" width="60" height="60" as="geometry" /></mxCell><mxCell id="16" parent="9" style="shape=mxgraph.aws4.resourceIcon;resIcon=mxgraph.aws4.nat_gateway;fillColor=#FFB300;strokeColor=#FFFFFF;gradientColor=none;verticalLabelPosition=bottom;verticalAlign=top;html=1;" vertex="1"><mxGeometry x="0" y="0" width="60" height="60" as="geometry" /></mxCell><mxCell id="17" parent="12" style="shape=mxgraph.aws4.resourceIcon;resIcon=mxgraph.aws4.nat_gateway;fillColor=#FFB300;strokeColor=#FFFFFF;gradientColor=none;verticalLabelPosition=bottom;verticalAlign=top;html=1;" vertex="1"><mxGeometry x="0" y="0" width="60" height="60" as="geometry" /></mxCell><mxCell id="18" parent="7" style="shape=mxgraph.aws4.resourceIcon;resIcon=mxgraph.aws4.lambda_function;fillColor=#F58A1F;strokeColor=#FFFFFF;gradientColor=none;verticalLabelPosition=bottom;verticalAlign=top;html=1;" vertex="1"><mxGeometry x="0" y="0" width="60" height="60" as="geometry" /></mxCell><mxCell id="19" parent="7" style="shape=mxgraph.aws4.resourceIcon;resIcon=mxgraph.aws4.step_functions;fillColor=#8056E0;strokeColor=#FFFFFF;gradientColor=none;verticalLabelPosition=bottom;verticalAlign=top;html=1;" vertex="1"><mxGeometry x="0" y="0" width="60" height="60" as="geometry" /></mxCell><mxCell id="20" parent="7" style="shape=mxgraph.aws4.resourceIcon;resIcon=mxgraph.aws4.sns;fillColor=#EA4335;strokeColor=#FFFFFF;gradientColor=none;verticalLabelPosition=bottom;verticalAlign=top;html=1;" vertex="1"><mxGeometry x="0" y="0" width="60" height="60" as="geometry" /></mxCell><mxCell id="21" parent="10" style="shape=mxgraph.aws4.resourceIcon;resIcon=mxgraph.aws4.lambda_function;fillColor=#F58A1F;strokeColor=#FFFFFF;gradientColor=none;verticalLabelPosition=bottom;verticalAlign=top;html=1;" vertex="1"><mxGeometry x="0" y="0" width="60" height="60" as="geometry" /></mxCell><mxCell id="22" parent="10" style="shape=mxgraph.aws4.resourceIcon;resIcon=mxgraph.aws4.step_functions;fillColor=#8056E0;strokeColor=#FFFFFF;gradientColor=none;verticalLabelPosition=bottom;verticalAlign=top;html=1;" vertex="1"><mxGeometry x="0" y="0" width="60" height="60" as="geometry" /></mxCell><mxCell id="23" parent="10" style="shape=mxgraph.aws4.resourceIcon;resIcon=mxgraph.aws4.sns;fillColor=#EA4335;strokeColor=#FFFFFF;gradientColor=none;verticalLabelPosition=bottom;verticalAlign=top;html=1;" vertex="1"><mxGeometry x="0" y="0" width="60" height="60" as="geometry" /></mxCell><mxCell id="24" parent="13" style="shape=mxgraph.aws4.resourceIcon;resIcon=mxgraph.aws4.lambda_function;fillColor=#F58A1F;strokeColor=#FFFFFF;gradientColor=none;verticalLabelPosition=bottom;verticalAlign=top;html=1;" vertex="1"><mxGeometry x="0" y="0" width="60" height="60" as="geometry" /></mxCell><mxCell id="25" parent="13" style="shape=mxgraph.aws4.resourceIcon;resIcon=mxgraph.aws4.step_functions;fillColor=#8056E0;strokeColor=#FFFFFF;gradientColor=none;verticalLabelPosition=bottom;verticalAlign=top;html=1;" vertex="1"><mxGeometry x="0" y="0" width="60" height="60" as="geometry" /></mxCell><mxCell id="26" parent="13" style="shape=mxgraph.aws4.resourceIcon;resIcon=mxgraph.aws4.sns;fillColor=#EA4335;strokeColor=#FFFFFF;gradientColor=none;verticalLabelPosition=bottom;verticalAlign=top;html=1;" vertex="1"><mxGeometry x="0" y="0" width="60" height="60" as="geometry" /></mxCell><mxCell id="27" parent="8" style="shape=mxgraph.aws4.resourceIcon;resIcon=mxgraph.aws4.neptune;fillColor=#1B9FFF;strokeColor=#FFFFFF;gradientColor=none;verticalLabelPosition=bottom;verticalAlign=top;html=1;" vertex="1"><mxGeometry x="0" y="0" width="60" height="60" as="geometry" /></mxCell><mxCell id="28" parent="11" style="shape=mxgraph.aws4.resourceIcon;resIcon=mxgraph.aws4.neptune;fillColor=#1B9FFF;strokeColor=#FFFFFF;gradientColor=none;verticalLabelPosition=bottom;verticalAlign=top;html=1;" vertex="1"><mxGeometry x="0" y="0" width="60" height="60" as="geometry" /></mxCell><mxCell id="29" parent="1" style="shape=mxgraph.aws4.resourceIcon;resIcon=mxgraph.aws4.internet_gateway;fillColor=#232F3E;strokeColor=#FFFFFF;gradientColor=none;verticalLabelPosition=bottom;verticalAlign=top;html=1;" vertex="1"><mxGeometry x="700.0" y="-80" width="80" height="80" as="geometry" /></mxCell><mxCell id="30" parent="1" style="shape=mxgraph.aws4.resourceIcon;resIcon=mxgraph.aws4.api_gateway;fillColor=#FF9900;strokeColor=#FFFFFF;gradientColor=none;verticalLabelPosition=bottom;verticalAlign=top;html=1;" vertex="1"><mxGeometry x="-80" y="160" width="80" height="80" as="geometry" /></mxCell><mxCell id="31" parent="1" style="shape=mxgraph.aws4.resourceIcon;resIcon=mxgraph.aws4.bedrock;fillColor=#5A30B5;strokeColor=#FFFFFF;gradientColor=none;verticalLabelPosition=bottom;verticalAlign=top;html=1;" vertex="1"><mxGeometry x="1520" y="120" width="60" height="60" as="geometry" /></mxCell><mxCell id="32" parent="1" style="shape=mxgraph.aws4.resourceIcon;resIcon=mxgraph.aws4.s3;fillColor=#5A30B5;strokeColor=#FFFFFF;gradientColor=none;verticalLabelPosition=bottom;verticalAlign=top;html=1;" vertex="1"><mxGeometry x="1520" y="230" width="60" height="60" as="geometry" /></mxCell><mxCell id="33" parent="1" style="shape=mxgraph.aws4.resourceIcon;resIcon=mxgraph.aws4.textract;fillColor=#5A30B5;strokeColor=#FFFFFF;gradientColor=none;verticalLabelPosition=bottom;verticalAlign=top;html=1;" vertex="1"><mxGeometry x="1520" y="340" width="60" height="60" as="geometry" /></mxCell><mxCell id="34" parent="1" style="shape=mxgraph.aws4.resourceIcon;resIcon=mxgraph.aws4.glue;fillColor=#5A30B5;strokeColor=#FFFFFF;gradientColor=none;verticalLabelPosition=bottom;verticalAlign=top;html=1;" vertex="1"><mxGeometry x="1520" y="450" width="60" height="60" as="geometry" /></mxCell><mxCell id="35" parent="1" style="shape=mxgraph.aws4.resourceIcon;resIcon=mxgraph.aws4.dynamodb;fillColor=#5A30B5;strokeColor=#FFFFFF;gradientColor=none;verticalLabelPosition=bottom;verticalAlign=top;html=1;" vertex="1"><mxGeometry x="1520" y="560" width="60" height="60" as="geometry" /></mxCell><mxCell id="36" parent="1" style="shape=mxgraph.aws4.resourceIcon;resIcon=mxgraph.aws4.cloudwatch;fillColor=#5A30B5;strokeColor=#FFFFFF;gradientColor=none;verticalLabelPosition=bottom;verticalAlign=top;html=1;" vertex="1"><mxGeometry x="1520" y="670" width="60" height="60" as="geometry" /></mxCell><mxCell id="37" parent="1" style="endArrow=block;endFill=1;strokeWidth=2;" edge="1" source="30" target="18"><mxGeometry relative="1" as="geometry" /></mxCell></root></mxGraphModel></diagram></mxfile>